<svg xmlns="http://www.w3.org/2000/svg" width="420" height="140" viewBox="0 0 420 140">
  <rect x="0" y="0" width="420" height="140" rx="24" fill="#2d5a3f"/>
  <ellipse cx="64" cy="112" rx="50" ry="14" fill="#1ba5b7" opacity="0.35"/>
  <rect x="26" y="34" width="74" height="70" rx="10" fill="#b2703b"/>
  <rect x="26" y="34" width="74" height="18" rx="8" fill="#d28a4d"/>
  <rect x="56" y="34" width="14" height="70" fill="#7f512a"/>
  <path d="M63 23 C42 15,41 35,56 38 C70 39,73 25,63 23 Z" fill="#ef5a38"/>
  <path d="M63 23 C84 15,85 35,70 38 C56 39,53 25,63 23 Z" fill="#ef5a38"/>
  <circle cx="50" cy="67" r="4.5" fill="#3e2c1d"/>
  <path d="M71 67 q6 -8 12 0" stroke="#3e2c1d" stroke-width="4" fill="none" stroke-linecap="round"/>
  <path d="M53 83 q12 9 24 0" stroke="#3e2c1d" stroke-width="4" fill="none" stroke-linecap="round"/>
  <text x="128" y="62" font-family="Segoe UI, Arial, sans-serif" font-size="54" font-weight="900" fill="#ffffff">Reward</text>
  <text x="128" y="112" font-family="Segoe UI, Arial, sans-serif" font-size="62" font-weight="900" fill="#f7b500">Lelo</text>
  <text x="272" y="112" font-family="Segoe UI, Arial, sans-serif" font-size="38" font-weight="700" fill="#ffffff">.com</text>
</svg>
